<svg width="0" height="0" class="hidden">
 <symbol fill="none" xmlns="http://www.w3.org/2000/svg" viewBox="0 0 75 71" id="logo">
    <path fill-rule="evenodd" clip-rule="evenodd" d="M20.0615 67.4467C18.7904 67.4467 17.9959 66.4822 17.9959 64.9043C17.9959 57.4483 32.7903 40.5126 47.5487 26.157C45.0534 42.2797 28.5659 67.4467 20.0615 67.4467ZM73.0204 0.817932C70.9896 0.866873 66.8233 1.0245 63.1684 1.07694C61.8828 1.09537 61.3692 1.67296 61.534 2.5021C61.7282 3.47916 62.372 4.20263 63.3408 4.22821C64.5883 4.26126 66.2592 4.05294 68.4014 3.94759C63.5314 7.69473 57.6389 12.6199 51.5596 18.0997C50.8456 12.5867 48.2897 8.17763 43.2607 8.17763C35.9514 8.17763 28.6421 19.3005 25.4641 25.4975C25.1463 20.4128 22.9217 15.6458 18.1548 15.6458C8.24396 15.6458 0 38.1983 0 41.5731C0 42.7269 1.31949 43.612 2.11398 43.612C3.06737 43.612 3.37722 43.1353 3.69502 42.023C7.82638 28.5166 14.0234 19.1416 18.1548 19.1416C20.2204 19.1416 21.8094 21.5251 21.8094 27.0865C21.8094 31.1785 21.1123 33.663 21.1123 34.6326C21.1123 36.1477 22.445 36.9382 23.2395 36.9382C24.1929 36.9382 24.5107 36.4615 24.9874 35.3492C29.7543 23.5908 37.5404 11.8323 43.1018 11.8323C45.8404 11.8323 47.7035 15.3304 47.8571 21.4858C31.1832 36.9552 14.3838 55.5964 14.3838 64.7667C14.3838 68.5833 16.4882 70.7836 19.9026 70.7836C32.1613 70.7836 51.347 40.3166 51.7646 22.1238C58.5866 15.7048 65.0916 10.0995 69.7729 6.53287C69.0521 8.32127 68.3256 10.0607 67.956 11.3591C67.6854 12.309 67.8502 13.3534 69.0176 13.8074C69.7559 14.0945 70.4139 13.6784 70.7032 12.8532C72.4624 7.83377 73.3688 5.77492 74.4448 2.90315C75.1486 1.02482 75.0734 0.768515 73.0204 0.817932Z" fill="#0B3B3C"></path>
  </symbol>
  <symbol fill="none" xmlns="http://www.w3.org/2000/svg" viewBox="0 0 14 20" id="icon-facebook">
    <path d="M4.52866 20L4.5 11.25H0.75V7.5H4.5V5C4.5 1.626 6.58939 0 9.59923 0C11.041 0 12.2801 0.107338 12.6412 0.155313V3.68134L10.5537 3.68229C8.91679 3.68229 8.59984 4.46012 8.59984 5.60155V7.5H13.25L12 11.25H8.59982V20H4.52866Z" fill="#7E0707"></path>
  </symbol>
  <symbol fill="none" xmlns="http://www.w3.org/2000/svg" viewBox="0 0 18 18" id="icon-gmail">
    <path d="M17.9016 7.36122H9.17957V11.0439H14.122C13.3329 13.499 11.3808 14.3173 9.13804 14.3173C8.26959 14.3185 7.41368 14.1132 6.64294 13.7189C5.8722 13.3246 5.20936 12.753 4.71066 12.0525C4.21197 11.3521 3.89213 10.5434 3.7783 9.69524C3.66446 8.84703 3.75997 7.98428 4.05674 7.1802C4.35351 6.37611 4.84277 5.65442 5.48302 5.07634C6.12327 4.49827 6.8956 4.08088 7.7345 3.85958C8.57339 3.63828 9.45409 3.61961 10.3019 3.80514C11.1497 3.99068 11.9395 4.37495 12.6044 4.92535L15.3207 2.37695C14.2269 1.38545 12.904 0.67186 11.4669 0.2981C10.0298 -0.0756589 8.52182 -0.0983008 7.07381 0.232139C5.6258 0.562579 4.2815 1.23612 3.15754 2.19432C2.03358 3.15253 1.16392 4.36645 0.624008 5.73077C0.0840944 7.09509 -0.109762 8.56859 0.0592589 10.0234C0.228279 11.4783 0.755071 12.8705 1.59393 14.0794C2.43279 15.2882 3.55837 16.2771 4.87302 16.9604C6.18768 17.6436 7.65169 18.0004 9.13804 18C14.1764 18 18.7322 14.7265 17.9016 7.36122Z" fill="#7E0707"></path>
  </symbol>
  <symbol fill="none" xmlns="http://www.w3.org/2000/svg" viewBox="0 0 22 17" id="icon-twitter">
    <path d="M18.995 2.68799C19.8914 2.15208 20.5622 1.30823 20.882 0.313989C20.0397 0.813791 19.118 1.16587 18.157 1.35499C16.8246 -0.0544839 14.7135 -0.397485 13.0034 0.517645C11.2933 1.43277 10.4075 3.37948 10.841 5.26999C7.39062 5.09676 4.17598 3.4669 1.99702 0.785989C0.859855 2.74741 1.44097 5.25477 3.32502 6.51599C2.64373 6.49409 1.97754 6.30963 1.38202 5.97799C1.38202 5.99599 1.38202 6.01399 1.38202 6.03199C1.38241 8.07514 2.82239 9.83507 4.82502 10.24C4.19308 10.4119 3.53022 10.4372 2.88702 10.314C3.45022 12.0613 5.06057 13.2583 6.89602 13.294C5.37585 14.4871 3.49849 15.1342 1.56602 15.131C1.22349 15.1315 0.881226 15.1118 0.541016 15.072C2.50341 16.333 4.78739 17.0023 7.12002 17C10.3653 17.0223 13.484 15.7429 15.7787 13.448C18.0734 11.1531 19.3526 8.03424 19.33 4.78899C19.33 4.60299 19.3257 4.41799 19.317 4.23399C20.1575 3.62659 20.8828 2.87414 21.459 2.01199C20.676 2.35905 19.8455 2.58691 18.995 2.68799Z" fill="#7E0707"></path>
  </symbol>
</svg>